<?xml version="1.0" standalone="no"?>
<!DOCTYPE svg PUBLIC "-//W3C//DTD SVG 20010904//EN"
 "http://www.w3.org/TR/2001/REC-SVG-20010904/DTD/svg10.dtd">
<svg version="1.0" xmlns="http://www.w3.org/2000/svg"
 width="3931.000000pt" height="3931.000000pt" viewBox="0 0 3931.000000 3931.000000"
 preserveAspectRatio="xMidYMid meet">
<metadata>
Created by potrace 1.11, written by Peter Selinger 2001-2013
</metadata>
<g transform="translate(0.000000,3931.000000) scale(0.100000,-0.100000)"
fill="#000000" stroke="none">
<path d="M17305 28662 c-45 -28 -49 -35 -113 -202 -296 -770 -467 -1136 -889
-1909 -105 -192 -141 -269 -172 -365 -135 -417 -133 -833 5 -1224 124 -353
324 -614 764 -996 69 -60 131 -114 139 -121 11 -11 1 -32 -56 -126 -63 -104
-344 -622 -456 -844 -85 -168 -94 -248 -48 -457 51 -230 56 -278 56 -538 -1
-319 -34 -543 -130 -885 -76 -271 -70 -398 34 -658 111 -277 147 -452 138
-671 -6 -155 -25 -240 -90 -391 -83 -194 -92 -345 -34 -590 86 -363 119 -598
118 -835 0 -265 -35 -386 -167 -575 -74 -107 -203 -372 -254 -520 -53 -153
-95 -327 -116 -474 -21 -140 -23 -415 -5 -521 54 -320 209 -608 356 -661 l38
-14 -6 -95 c-4 -52 -16 -250 -27 -440 -21 -364 -39 -567 -65 -740 -112 -758
-331 -1355 -696 -1895 -198 -294 -379 -492 -754 -828 -34 -30 -37 -37 -23 -42
30 -12 259 145 463 317 125 105 374 363 471 488 518 669 806 1523 864 2565 19
349 30 784 37 1452 l6 661 -73 4 c-42 2 -74 -1 -76 -7 -4 -12 -64 -703 -94
-1080 -12 -142 -23 -261 -25 -263 -8 -9 -77 50 -107 92 -88 122 -145 263 -173
435 -25 149 -16 410 19 574 71 331 239 688 441 937 70 86 108 156 144 265 50
150 64 285 58 545 -6 243 -23 386 -79 655 -23 111 -32 176 -31 250 0 107 3
120 87 310 73 167 101 337 93 555 -8 221 -41 362 -167 714 -47 131 -49 203
-11 346 123 455 167 796 143 1128 -14 198 -31 300 -78 482 -25 93 -34 147 -30
175 4 34 364 817 384 837 4 4 99 -90 212 -209 113 -118 428 -441 700 -716 405
-409 497 -497 507 -486 9 12 -29 66 -203 283 -283 354 -835 1025 -1199 1456
-11 13 -2 31 54 115 226 343 413 823 500 1290 56 297 88 709 77 990 -18 482
-219 2323 -263 2408 -32 62 -134 88 -198 49z m35 -677 c18 -406 69 -1237 91
-1490 27 -308 36 -801 20 -1042 -37 -539 -122 -945 -310 -1473 -31 -88 -45
-115 -58 -115 -12 0 -66 69 -158 201 -77 110 -161 228 -187 261 -80 102 -187
273 -248 398 -73 149 -123 291 -157 454 -25 116 -27 145 -28 366 0 249 6 317
51 547 20 103 49 191 148 455 274 725 454 1126 770 1713 l51 95 2 -65 c1 -36
7 -173 13 -305z"/>
<path d="M17897 24126 c-83 -31 -135 -117 -144 -238 -4 -60 0 -89 22 -163 62
-215 151 -326 276 -350 76 -14 168 32 208 104 33 60 32 156 -2 266 -14 44 -31
105 -37 135 -18 78 -56 155 -92 185 -75 63 -163 86 -231 61z m165 -259 c105
-49 150 -83 168 -127 16 -39 6 -91 -24 -119 -27 -25 -178 -81 -219 -81 -65 0
-107 48 -107 122 0 38 72 248 86 248 1 0 45 -20 96 -43z"/>
<path d="M18457 23516 c-145 -39 -229 -225 -183 -406 71 -283 307 -416 454
-256 63 68 70 120 43 315 -33 236 -76 307 -207 347 -55 16 -46 16 -107 0z
m173 -264 c86 -43 120 -84 120 -143 0 -64 -34 -92 -152 -129 -116 -36 -157
-35 -197 5 -51 51 -22 172 68 277 40 47 49 46 161 -10z"/>
<path d="M4810 23214 c-643 -45 -1158 -179 -1695 -438 -933 -452 -1656 -1173
-2115 -2111 -247 -505 -377 -945 -447 -1515 -26 -209 -25 -822 0 -1030 76
-608 238 -1123 519 -1645 220 -409 451 -718 793 -1061 380 -381 717 -624 1196
-863 675 -337 1355 -487 2129 -468 778 19 1430 197 2105 572 290 162 710 466
753 546 49 92 8 204 -93 250 -78 36 -118 21 -280 -101 -576 -434 -1232 -724
-1885 -834 -259 -44 -366 -51 -730 -51 -380 1 -528 14 -830 76 -808 166 -1580
591 -2170 1196 -574 588 -971 1354 -1114 2153 -78 437 -86 919 -21 1365 106
733 413 1429 891 2025 500 624 1199 1106 1974 1361 307 101 624 162 973 190
196 15 605 7 802 -16 747 -87 1428 -365 2065 -844 91 -68 181 -130 200 -138
102 -44 240 52 240 166 0 70 -47 132 -177 233 -306 238 -604 421 -946 579
-460 213 -880 329 -1387 384 -138 15 -629 27 -750 19z"/>
<path d="M9520 23090 c-19 -10 -44 -33 -55 -52 -20 -33 -20 -51 -20 -4398 0
-4191 1 -4367 18 -4393 31 -48 74 -67 150 -67 74 0 108 13 147 55 l25 27 5
1821 c6 1986 3 1862 61 2092 124 484 466 947 923 1247 553 364 1189 502 1782
387 507 -97 934 -417 1187 -889 117 -219 196 -470 250 -795 21 -129 21 -150
27 -1992 l5 -1862 21 -28 c32 -43 80 -63 154 -63 81 0 129 22 152 70 17 33 18
143 18 1865 0 1587 -2 1848 -15 1965 -105 914 -601 1640 -1335 1953 -437 186
-953 218 -1470 91 -538 -132 -1054 -424 -1400 -792 -133 -142 -217 -259 -295
-416 l-65 -130 0 2105 c0 1983 -1 2106 -18 2139 -35 72 -170 104 -252 60z"/>
<path d="M23770 23090 c-19 -10 -44 -33 -55 -52 -20 -33 -20 -51 -20 -4398 0
-4191 1 -4367 18 -4393 31 -48 74 -67 150 -67 74 0 108 13 147 55 l25 27 5
1821 c6 1986 3 1862 61 2092 124 484 466 947 923 1247 553 364 1189 502 1782
387 507 -97 934 -417 1187 -889 117 -219 196 -470 250 -795 21 -129 21 -150
27 -1992 l5 -1862 21 -28 c32 -43 80 -63 154 -63 81 0 129 22 152 70 17 33 18
143 18 1865 0 1587 -2 1848 -15 1965 -105 914 -601 1640 -1335 1953 -437 186
-953 218 -1470 91 -538 -132 -1054 -424 -1400 -792 -133 -142 -217 -259 -295
-416 l-65 -130 0 2105 c0 1983 -1 2106 -18 2139 -35 72 -170 104 -252 60z"/>
<path d="M18895 22861 c-45 -11 -69 -27 -103 -65 -73 -83 -58 -163 86 -455 41
-81 122 -149 199 -165 73 -16 171 36 204 108 23 51 25 159 4 240 -24 91 -90
219 -132 256 -71 63 -187 99 -258 81z m133 -245 c31 -8 83 -20 115 -26 99 -20
143 -77 112 -144 -19 -39 -50 -56 -157 -85 -96 -26 -109 -26 -141 0 -39 30
-50 84 -37 181 13 93 16 102 36 94 8 -3 40 -12 72 -20z"/>
<path d="M15238 22070 c-109 -33 -218 -172 -263 -335 -21 -79 -31 -312 -16
-386 27 -129 116 -256 216 -306 30 -16 73 -28 111 -31 173 -14 311 111 345
313 15 87 5 362 -17 454 -48 207 -218 339 -376 291z m180 -307 c143 -148 192
-236 192 -342 0 -144 -148 -233 -359 -218 -176 13 -266 134 -217 289 32 98
159 293 220 336 53 38 71 30 164 -65z"/>
<path d="M15223 20494 c-96 -35 -194 -157 -239 -298 -22 -66 -28 -107 -31
-216 -6 -159 4 -222 53 -319 44 -89 131 -172 205 -196 67 -23 178 -17 234 12
126 65 195 210 195 413 0 350 -60 508 -223 592 -53 26 -140 32 -194 12z m172
-275 c188 -177 255 -331 195 -450 -45 -87 -173 -136 -333 -127 -213 12 -290
155 -192 354 46 93 146 233 187 262 50 34 70 29 143 -39z"/>
<path d="M19945 20203 c-122 -10 -343 -48 -458 -77 -161 -42 -284 -88 -427
-162 -153 -78 -267 -161 -395 -289 -211 -210 -338 -456 -389 -756 -16 -94 -24
-290 -16 -385 40 -457 285 -768 816 -1037 354 -179 596 -260 1314 -440 452
-114 639 -171 828 -253 242 -104 416 -218 557 -365 128 -134 184 -228 226
-384 19 -68 22 -106 22 -255 0 -191 -18 -308 -69 -452 -183 -510 -711 -844
-1458 -923 -489 -51 -934 25 -1361 234 -295 144 -515 312 -740 563 -53 59 -65
67 -106 73 -62 9 -122 -9 -169 -51 -79 -72 -77 -141 8 -253 74 -96 264 -294
362 -376 314 -262 739 -436 1260 -518 114 -18 181 -21 435 -21 317 -1 412 6
636 50 878 170 1445 704 1545 1454 16 122 18 354 4 455 -58 406 -325 739 -780
974 -276 142 -472 206 -1175 382 -592 148 -818 221 -1072 346 -376 184 -599
407 -676 674 -80 273 -19 610 157 873 213 317 514 488 996 563 165 26 664 26
830 0 240 -37 419 -96 594 -193 191 -107 367 -236 511 -374 44 -43 90 -83 102
-89 30 -15 119 -14 151 3 67 35 107 107 95 169 -12 62 -44 106 -142 198 -389
361 -848 572 -1380 634 -114 14 -515 19 -636 8z"/>
<path d="M32410 20129 c-582 -67 -1206 -406 -1550 -842 l-75 -96 -5 399 c-5
383 -6 400 -26 427 -35 48 -79 64 -161 61 -80 -4 -117 -23 -143 -74 -13 -26
-15 -364 -15 -2869 0 -2505 2 -2843 15 -2869 26 -51 63 -70 143 -74 82 -3 126
13 161 61 l21 28 6 2042 c6 2227 2 2078 60 2257 75 229 259 495 473 681 404
354 974 551 1475 510 503 -41 911 -283 1184 -702 166 -254 261 -539 287 -853
6 -83 10 -802 10 -2026 l0 -1897 23 -34 c31 -47 79 -69 152 -69 69 0 118 21
149 63 l21 28 5 1987 c6 1972 6 1988 27 2077 71 308 216 572 443 809 503 524
1333 755 1963 545 209 -69 397 -188 567 -359 219 -219 353 -468 433 -805 58
-242 57 -198 57 -2295 l0 -1926 23 -44 c31 -64 71 -82 169 -78 82 3 111 17
152 72 l21 27 0 1962 c0 2100 2 2021 -51 2284 -53 266 -183 582 -331 803 -307
458 -752 726 -1313 791 -132 15 -456 7 -600 -16 -624 -97 -1157 -394 -1508
-838 -68 -86 -158 -234 -198 -324 l-25 -57 -39 85 c-162 357 -419 669 -716
870 -221 149 -499 246 -796 278 -113 13 -379 12 -488 0z"/>
<path d="M15195 18486 c-63 -29 -139 -110 -172 -184 -35 -76 -43 -221 -18
-308 69 -238 256 -368 420 -290 95 45 139 118 156 261 15 119 -1 314 -30 381
-62 140 -222 203 -356 140z m181 -226 c124 -62 191 -149 182 -234 -7 -55 -32
-90 -83 -115 -52 -26 -218 -55 -269 -47 -76 13 -126 72 -126 149 0 89 152 275
226 277 6 0 38 -13 70 -30z"/>
</g>
</svg>
